<?xml version="1.0" encoding="utf-8"?>
<!-- Generator: Adobe Illustrator 16.0.4, SVG Export Plug-In . SVG Version: 6.00 Build 0)  -->
<!DOCTYPE svg PUBLIC "-//W3C//DTD SVG 1.1//EN" "http://www.w3.org/Graphics/SVG/1.1/DTD/svg11.dtd">
<svg version="1.1" id="Layer_1" xmlns="http://www.w3.org/2000/svg" xmlns:xlink="http://www.w3.org/1999/xlink" x="0px" y="0px"
	 width="712.751px" height="189.501px" viewBox="0 0 712.751 189.501" enable-background="new 0 0 712.751 189.501"
	 xml:space="preserve">
<path fill="#5A605E" d="M81.827,84.176c-5.999,6.32-10.586,11.059-13.417,14.373l-26.381,30.493
	c-1.264,1.415-1.74,2.051-3.009,3.313c1.114-0.152,3.168-0.152,4.746-0.152h17.211c9.802,0,16.748-0.317,23.858-1.104v28.283
	c-7.425-0.784-12.789-1.104-24.014-1.104H21.322c-12.637,0-16.269,0-21.322,0.473v-24.014c6.158-6.013,10.104-10.278,13.421-14.062
	l25.588-30.017c0.632-0.788,1.584-1.889,3.009-3.32c-0.635,0-3.482,0-4.587,0h-10.58c-10.275,0-16.43,0.317-23.854,1.111V60.801
	c7.897,0.79,14.208,1.111,23.854,1.111h33.327c13.431,0,16.592,0,21.646-0.47L81.827,84.176L81.827,84.176z"/>
<path fill="#5A605E" d="M130.009,61.905c-0.949,6.476-1.266,12.792-1.266,23.852v48.658c0,8.533,0.473,17.057,1.266,23.853H96.991
	c0.949-7.745,1.263-13.741,1.263-23.853V85.757c0-10.272-0.314-16.748-1.263-23.852H130.009z"/>
<rect x="97.463" fill="#F36E51" width="32.067" height="23.699"/>
<path fill="#5A605E" d="M175.792,26.829c-0.949,6.641-1.26,13.11-1.26,23.852v83.734c0,9.477,0.311,15.481,1.26,23.853h-33.016
	c0.946-7.114,1.263-12.481,1.263-23.853V50.681c0-11.211-0.317-17.849-1.263-23.852H175.792z"/>
<path fill="#5A605E" d="M223.232,26.829c-0.952,6.641-1.272,13.11-1.272,23.852v83.734c0,9.477,0.314,15.481,1.272,23.853h-33.025
	c0.949-7.114,1.267-12.481,1.267-23.853V50.681c0-11.211-0.317-17.849-1.267-23.852H223.232z"/>
<path fill="#5A605E" d="M298.015,92.235c0-7.583-4.577-11.059-14.998-11.059c-10.113,0-15.484,3.317-17.855,11.059l-30.175-4.904
	c3.171-9.319,6.646-14.373,13.271-19.109c8.529-6.002,20.224-9.009,35.543-9.009c11.688,0,23.064,2.216,29.229,5.523
	c10.113,5.539,14.529,14.221,14.529,28.448v42.644c0,9.644,0.311,15.325,1.112,22.439h-30.656v-7.272
	c-8.847,6.803-17.693,9.481-30.645,9.481c-12.008,0-21.014-2.841-27.33-8.688c-5.691-5.221-8.694-12.799-8.694-21.483
	c0-9.961,3.945-17.858,11.532-23.064c8.053-5.694,18.643-9.015,32.856-10.278c6.161-0.628,10.91-0.79,22.274-1.107v-3.622h0.006
	V92.235z M298.015,116.087c-14.049,0.32-20.849,1.108-27.327,3.158c-5.688,1.896-9.161,5.848-9.161,10.425
	c0,5.688,4.736,9.019,12.948,9.019c6.472,0,13.586-2.368,17.853-6.01c3.631-3.161,5.682-7.428,5.682-12.157L298.015,116.087
	L298.015,116.087z"/>
<path fill="#5A605E" d="M339.087,158.268c0.946-7.583,1.261-14.222,1.261-24.801V51.63c0-11.529-0.314-17.22-1.261-24.801h32.067
	c-0.784,7.581-1.108,13.269-1.108,24.801v13.266c0,2.374,0,3.796-0.158,6.012c9.326-8.222,19.436-11.85,32.552-11.85
	c28.756,0,45.497,18.322,45.497,49.611c0,16.887-4.9,30.486-14.059,40.11c-8.212,8.222-18.96,12.319-32.86,12.319
	c-13.109,0-20.846-2.691-31.13-11.221c0,0.482,0.158,2.526,0.158,3.32v5.06h-30.959V158.268z M395.009,83.071
	c-14.367,0-24.643,11.06-24.643,26.382c0,15.627,10.435,27.486,24.008,27.486c13.744,0,22.909-11.222,22.909-27.966
	C417.287,92.867,408.91,83.071,395.009,83.071z"/>
<path fill="#5A605E" d="M472.567,188.293c18.008,0,29.388-6.793,35.691-21.643l34.646-80.024c2.196-0.152,4.443-0.231,6.936-0.231
	h6.006v48.329c0,10.748,2.219,16.115,8.218,20.696c5.066,3.803,12.479,5.539,23.227,5.539c8.532,0,14.685-0.949,21.798-3.155
	l-2.368-24.02c-3.955,2.057-6.948,2.844-11.059,2.844c-3.013,0-5.536-0.631-7.275-1.749c-2.051-1.412-2.842-3.625-2.842-8.047
	V86.385h6.638c5.691,0,9.796,0.314,14.532,0.946V61.112c-4.901,0.638-8.542,0.793-15.481,0.793h-5.688v-3.32
	c0-7.586,0.47-15.167,1.267-21.643h-32.238c0.949,7.422,1.264,13.738,1.264,21.643v3.32h-1.921h-3.764h-30.517
	c-0.949,5.526-2.365,10.107-6.796,21.007l-14.056,35.86l-14.535-36.495c-3.317-8.533-5.378-15.319-6.165-20.373h-34.285
	c2.063,3.955,2.688,5.371,9.484,21.166l29.547,66.664l-3.32,6.796c-2.365,4.742-6.793,7.428-12.796,7.428
	c-4.107,0-7.107-0.791-12.313-3.473l-3.476,25.121"/>
<path fill="#5A605E" d="M641.657,118.929c1.574,12.805,9.012,19.592,21.483,19.592c6.323,0,11.847-2.058,15.957-5.848
	c2.362-2.216,3.47-3.949,4.739-8.062l27.483,7.745c-3.625,8.222-6.009,11.847-10.424,16.262
	c-9.019,8.856-21.646,13.434-37.289,13.434c-15.465,0-27.642-4.438-36.638-13.434c-9.326-9.476-14.376-22.905-14.376-38.539
	c0-31.282,20.067-51.969,50.242-51.969c24.639,0,41.856,13.424,47.393,36.961c1.267,5.06,1.892,11.685,2.368,20.696
	c0,0.635,0,1.581,0.155,3.162H641.657L641.657,118.929z M682.736,97.13c-2.213-10.117-9.009-15.487-19.91-15.487
	c-11.215,0-17.998,5.057-20.687,15.487H682.736z"/>
</svg>

